<mxfile host="app.diagrams.net" modified="2024-01-08T15:16:45.200Z" agent="Mozilla/5.0 (X11; Linux x86_64; rv:109.0) Gecko/20100101 Firefox/115.0" etag="9XXVlnFE_UDAHCjyJ35x" version="22.1.17" type="device">
  <diagram name="Page-1" id="cFF76zY7rYpGayrwu2Bv">
    <mxGraphModel dx="1728" dy="933" grid="1" gridSize="10" guides="1" tooltips="1" connect="1" arrows="1" fold="1" page="1" pageScale="1" pageWidth="827" pageHeight="1169" math="0" shadow="0">
      <root>
        <mxCell id="0" />
        <mxCell id="1" parent="0" />
        <mxCell id="02cbwI6tHRLVrDnjbwTT-20" value="" style="rounded=1;whiteSpace=wrap;html=1;" vertex="1" parent="1">
          <mxGeometry x="170" y="120" width="490" height="510" as="geometry" />
        </mxCell>
        <mxCell id="02cbwI6tHRLVrDnjbwTT-1" value="&lt;b&gt;Front End&lt;/b&gt;" style="rounded=1;whiteSpace=wrap;html=1;fillColor=#bac8d3;strokeColor=#23445d;" vertex="1" parent="1">
          <mxGeometry x="330" y="140" width="120" height="60" as="geometry" />
        </mxCell>
        <mxCell id="02cbwI6tHRLVrDnjbwTT-2" value="&lt;b&gt;AS-FRONT&lt;/b&gt;" style="rounded=1;whiteSpace=wrap;html=1;fillColor=#fa6800;fontColor=#000000;strokeColor=#C73500;" vertex="1" parent="1">
          <mxGeometry x="330" y="240" width="120" height="60" as="geometry" />
        </mxCell>
        <mxCell id="02cbwI6tHRLVrDnjbwTT-3" value="&lt;b&gt;BS-ORM-USM&lt;/b&gt;" style="rounded=1;whiteSpace=wrap;html=1;fillColor=#d5e8d4;strokeColor=#82b366;" vertex="1" parent="1">
          <mxGeometry x="180" y="370" width="100" height="40" as="geometry" />
        </mxCell>
        <mxCell id="02cbwI6tHRLVrDnjbwTT-5" value="&lt;b&gt;BS-CACERTS&lt;/b&gt;" style="rounded=1;whiteSpace=wrap;html=1;fillColor=#d5e8d4;strokeColor=#82b366;" vertex="1" parent="1">
          <mxGeometry x="249" y="420" width="96" height="35" as="geometry" />
        </mxCell>
        <mxCell id="02cbwI6tHRLVrDnjbwTT-6" value="&lt;b&gt;BS-DEVICE-TWIN&lt;/b&gt;" style="rounded=1;whiteSpace=wrap;html=1;fillColor=#d5e8d4;strokeColor=#82b366;" vertex="1" parent="1">
          <mxGeometry x="320" y="470" width="110" height="40" as="geometry" />
        </mxCell>
        <mxCell id="02cbwI6tHRLVrDnjbwTT-7" value="&lt;b&gt;BS-PKI-CONNECTOR&lt;/b&gt;" style="rounded=1;whiteSpace=wrap;html=1;fillColor=#d5e8d4;strokeColor=#82b366;" vertex="1" parent="1">
          <mxGeometry x="513.5" y="375" width="133" height="35" as="geometry" />
        </mxCell>
        <mxCell id="02cbwI6tHRLVrDnjbwTT-8" value="&lt;b&gt;BS-CERT-MGR&lt;/b&gt;" style="rounded=1;whiteSpace=wrap;html=1;fillColor=#d5e8d4;strokeColor=#82b366;" vertex="1" parent="1">
          <mxGeometry x="470" y="470" width="120" height="40" as="geometry" />
        </mxCell>
        <mxCell id="02cbwI6tHRLVrDnjbwTT-10" value="" style="endArrow=none;dashed=1;html=1;dashPattern=1 3;strokeWidth=2;rounded=0;" edge="1" parent="1">
          <mxGeometry width="50" height="50" relative="1" as="geometry">
            <mxPoint x="180" y="360" as="sourcePoint" />
            <mxPoint x="650" y="360" as="targetPoint" />
          </mxGeometry>
        </mxCell>
        <mxCell id="02cbwI6tHRLVrDnjbwTT-11" value="" style="endArrow=none;dashed=1;html=1;dashPattern=1 3;strokeWidth=2;rounded=0;" edge="1" parent="1">
          <mxGeometry width="50" height="50" relative="1" as="geometry">
            <mxPoint x="170" y="560" as="sourcePoint" />
            <mxPoint x="660" y="560" as="targetPoint" />
          </mxGeometry>
        </mxCell>
        <mxCell id="02cbwI6tHRLVrDnjbwTT-13" value="" style="shape=curlyBracket;whiteSpace=wrap;html=1;rounded=1;labelPosition=left;verticalLabelPosition=middle;align=right;verticalAlign=middle;" vertex="1" parent="1">
          <mxGeometry x="140" y="120" width="20" height="240" as="geometry" />
        </mxCell>
        <mxCell id="02cbwI6tHRLVrDnjbwTT-16" value="&lt;b&gt;Unsecured Zone&lt;/b&gt;" style="text;strokeColor=none;fillColor=none;align=left;verticalAlign=middle;spacingLeft=4;spacingRight=4;overflow=hidden;points=[[0,0.5],[1,0.5]];portConstraint=eastwest;rotatable=0;whiteSpace=wrap;html=1;" vertex="1" parent="1">
          <mxGeometry x="30" y="225" width="120" height="30" as="geometry" />
        </mxCell>
        <mxCell id="02cbwI6tHRLVrDnjbwTT-17" value="&lt;b&gt;KEYCLOAK&lt;/b&gt;" style="rounded=1;whiteSpace=wrap;html=1;fillColor=#0050ef;fontColor=#ffffff;strokeColor=#001DBC;" vertex="1" parent="1">
          <mxGeometry x="520" y="240" width="120" height="60" as="geometry" />
        </mxCell>
        <mxCell id="02cbwI6tHRLVrDnjbwTT-18" value="&lt;b&gt;Users&lt;/b&gt;" style="ellipse;whiteSpace=wrap;html=1;aspect=fixed;fillColor=#dae8fc;strokeColor=#6c8ebf;" vertex="1" parent="1">
          <mxGeometry x="350" y="30" width="80" height="80" as="geometry" />
        </mxCell>
        <mxCell id="02cbwI6tHRLVrDnjbwTT-19" value="&lt;b&gt;Devices&lt;/b&gt;" style="ellipse;whiteSpace=wrap;html=1;aspect=fixed;fillColor=#fff2cc;strokeColor=#d6b656;" vertex="1" parent="1">
          <mxGeometry x="370" y="660" width="80" height="80" as="geometry" />
        </mxCell>
        <mxCell id="02cbwI6tHRLVrDnjbwTT-22" value="" style="shape=curlyBracket;whiteSpace=wrap;html=1;rounded=1;labelPosition=left;verticalLabelPosition=middle;align=right;verticalAlign=middle;" vertex="1" parent="1">
          <mxGeometry x="140" y="370" width="20" height="190" as="geometry" />
        </mxCell>
        <mxCell id="02cbwI6tHRLVrDnjbwTT-24" value="&lt;b&gt;Secured Zone&lt;/b&gt;" style="text;strokeColor=none;fillColor=none;align=left;verticalAlign=middle;spacingLeft=4;spacingRight=4;overflow=hidden;points=[[0,0.5],[1,0.5]];portConstraint=eastwest;rotatable=0;whiteSpace=wrap;html=1;" vertex="1" parent="1">
          <mxGeometry x="40" y="450" width="120" height="30" as="geometry" />
        </mxCell>
        <mxCell id="02cbwI6tHRLVrDnjbwTT-25" value="" style="endArrow=classic;html=1;rounded=0;exitX=0.5;exitY=1;exitDx=0;exitDy=0;" edge="1" parent="1" source="02cbwI6tHRLVrDnjbwTT-1" target="02cbwI6tHRLVrDnjbwTT-2">
          <mxGeometry width="50" height="50" relative="1" as="geometry">
            <mxPoint x="390" y="570" as="sourcePoint" />
            <mxPoint x="440" y="520" as="targetPoint" />
          </mxGeometry>
        </mxCell>
        <mxCell id="02cbwI6tHRLVrDnjbwTT-26" value="" style="endArrow=classic;html=1;rounded=0;exitX=0.5;exitY=1;exitDx=0;exitDy=0;entryX=1;entryY=0.5;entryDx=0;entryDy=0;" edge="1" parent="1" source="02cbwI6tHRLVrDnjbwTT-2" target="02cbwI6tHRLVrDnjbwTT-3">
          <mxGeometry width="50" height="50" relative="1" as="geometry">
            <mxPoint x="390" y="570" as="sourcePoint" />
            <mxPoint x="440" y="520" as="targetPoint" />
          </mxGeometry>
        </mxCell>
        <mxCell id="02cbwI6tHRLVrDnjbwTT-27" value="" style="endArrow=classic;html=1;rounded=0;entryX=0.573;entryY=0.029;entryDx=0;entryDy=0;entryPerimeter=0;" edge="1" parent="1" target="02cbwI6tHRLVrDnjbwTT-5">
          <mxGeometry width="50" height="50" relative="1" as="geometry">
            <mxPoint x="390" y="300" as="sourcePoint" />
            <mxPoint x="290" y="400" as="targetPoint" />
          </mxGeometry>
        </mxCell>
        <mxCell id="02cbwI6tHRLVrDnjbwTT-28" value="" style="endArrow=classic;html=1;rounded=0;" edge="1" parent="1" target="02cbwI6tHRLVrDnjbwTT-6">
          <mxGeometry width="50" height="50" relative="1" as="geometry">
            <mxPoint x="390" y="300" as="sourcePoint" />
            <mxPoint x="314" y="431" as="targetPoint" />
          </mxGeometry>
        </mxCell>
        <mxCell id="02cbwI6tHRLVrDnjbwTT-30" value="&lt;b&gt;MTLS Gateway&lt;/b&gt;" style="rounded=1;whiteSpace=wrap;html=1;fillColor=#d80073;fontColor=#ffffff;strokeColor=#A50040;" vertex="1" parent="1">
          <mxGeometry x="359" y="590" width="110" height="40" as="geometry" />
        </mxCell>
        <mxCell id="02cbwI6tHRLVrDnjbwTT-31" value="" style="endArrow=classic;html=1;rounded=0;exitX=0.5;exitY=0;exitDx=0;exitDy=0;" edge="1" parent="1" source="02cbwI6tHRLVrDnjbwTT-19">
          <mxGeometry width="50" height="50" relative="1" as="geometry">
            <mxPoint x="390" y="570" as="sourcePoint" />
            <mxPoint x="410" y="630" as="targetPoint" />
          </mxGeometry>
        </mxCell>
        <mxCell id="02cbwI6tHRLVrDnjbwTT-32" value="" style="endArrow=classic;html=1;rounded=0;exitX=0.5;exitY=0;exitDx=0;exitDy=0;entryX=0.5;entryY=1;entryDx=0;entryDy=0;" edge="1" parent="1" source="02cbwI6tHRLVrDnjbwTT-30" target="02cbwI6tHRLVrDnjbwTT-8">
          <mxGeometry width="50" height="50" relative="1" as="geometry">
            <mxPoint x="390" y="570" as="sourcePoint" />
            <mxPoint x="440" y="520" as="targetPoint" />
          </mxGeometry>
        </mxCell>
        <mxCell id="02cbwI6tHRLVrDnjbwTT-33" value="&lt;font style=&quot;font-size: 12px;&quot;&gt;&lt;b&gt;est simpleenroll&lt;/b&gt;&lt;/font&gt;" style="edgeLabel;html=1;align=center;verticalAlign=middle;resizable=0;points=[];" vertex="1" connectable="0" parent="02cbwI6tHRLVrDnjbwTT-32">
          <mxGeometry x="0.0197" relative="1" as="geometry">
            <mxPoint x="27" y="-9" as="offset" />
          </mxGeometry>
        </mxCell>
        <mxCell id="02cbwI6tHRLVrDnjbwTT-34" value="" style="endArrow=classic;html=1;rounded=0;entryX=0.455;entryY=0.971;entryDx=0;entryDy=0;entryPerimeter=0;" edge="1" parent="1" target="02cbwI6tHRLVrDnjbwTT-7">
          <mxGeometry width="50" height="50" relative="1" as="geometry">
            <mxPoint x="530" y="470" as="sourcePoint" />
            <mxPoint x="580" y="420" as="targetPoint" />
          </mxGeometry>
        </mxCell>
        <mxCell id="02cbwI6tHRLVrDnjbwTT-45" value="&lt;font style=&quot;font-size: 12px;&quot;&gt;&lt;b&gt;renew cert&lt;/b&gt;&lt;/font&gt;" style="edgeLabel;html=1;align=center;verticalAlign=middle;resizable=0;points=[];" vertex="1" connectable="0" parent="02cbwI6tHRLVrDnjbwTT-34">
          <mxGeometry x="-0.147" y="-1" relative="1" as="geometry">
            <mxPoint as="offset" />
          </mxGeometry>
        </mxCell>
        <mxCell id="02cbwI6tHRLVrDnjbwTT-35" value="&lt;b&gt;PKI&lt;/b&gt;" style="rounded=1;whiteSpace=wrap;html=1;fillColor=#eeeeee;strokeColor=#36393d;" vertex="1" parent="1">
          <mxGeometry x="675" y="383.75" width="60" height="17.5" as="geometry" />
        </mxCell>
        <mxCell id="02cbwI6tHRLVrDnjbwTT-36" value="" style="endArrow=classic;html=1;rounded=0;exitX=1;exitY=0.5;exitDx=0;exitDy=0;entryX=0;entryY=0.5;entryDx=0;entryDy=0;" edge="1" parent="1" source="02cbwI6tHRLVrDnjbwTT-7" target="02cbwI6tHRLVrDnjbwTT-35">
          <mxGeometry width="50" height="50" relative="1" as="geometry">
            <mxPoint x="390" y="600" as="sourcePoint" />
            <mxPoint x="440" y="550" as="targetPoint" />
          </mxGeometry>
        </mxCell>
        <mxCell id="02cbwI6tHRLVrDnjbwTT-37" value="" style="endArrow=classic;html=1;rounded=0;exitX=0.5;exitY=1;exitDx=0;exitDy=0;entryX=0.5;entryY=0;entryDx=0;entryDy=0;" edge="1" parent="1" source="02cbwI6tHRLVrDnjbwTT-18" target="02cbwI6tHRLVrDnjbwTT-1">
          <mxGeometry width="50" height="50" relative="1" as="geometry">
            <mxPoint x="440" y="510" as="sourcePoint" />
            <mxPoint x="490" y="460" as="targetPoint" />
          </mxGeometry>
        </mxCell>
        <mxCell id="02cbwI6tHRLVrDnjbwTT-41" value="" style="endArrow=classic;html=1;rounded=0;entryX=0.5;entryY=1;entryDx=0;entryDy=0;" edge="1" parent="1" source="02cbwI6tHRLVrDnjbwTT-30" target="02cbwI6tHRLVrDnjbwTT-6">
          <mxGeometry width="50" height="50" relative="1" as="geometry">
            <mxPoint x="410" y="370" as="sourcePoint" />
            <mxPoint x="460" y="320" as="targetPoint" />
          </mxGeometry>
        </mxCell>
        <mxCell id="02cbwI6tHRLVrDnjbwTT-42" value="&lt;b&gt;&lt;font style=&quot;font-size: 12px;&quot;&gt;autoprovisioning&lt;/font&gt;&lt;/b&gt;" style="edgeLabel;html=1;align=center;verticalAlign=middle;resizable=0;points=[];" vertex="1" connectable="0" parent="02cbwI6tHRLVrDnjbwTT-41">
          <mxGeometry x="0.2088" y="-2" relative="1" as="geometry">
            <mxPoint as="offset" />
          </mxGeometry>
        </mxCell>
        <mxCell id="02cbwI6tHRLVrDnjbwTT-44" value="" style="endArrow=classic;startArrow=classic;html=1;rounded=0;exitX=1;exitY=0.5;exitDx=0;exitDy=0;" edge="1" parent="1" source="02cbwI6tHRLVrDnjbwTT-2" target="02cbwI6tHRLVrDnjbwTT-17">
          <mxGeometry width="50" height="50" relative="1" as="geometry">
            <mxPoint x="550" y="390" as="sourcePoint" />
            <mxPoint x="600" y="340" as="targetPoint" />
          </mxGeometry>
        </mxCell>
        <mxCell id="02cbwI6tHRLVrDnjbwTT-46" value="&lt;b&gt;OKTA&lt;/b&gt;" style="rounded=1;whiteSpace=wrap;html=1;fillColor=#eeeeee;strokeColor=#36393d;" vertex="1" parent="1">
          <mxGeometry x="675" y="240" width="95" height="30" as="geometry" />
        </mxCell>
        <mxCell id="02cbwI6tHRLVrDnjbwTT-47" value="&lt;b&gt;ActiveDirectory&lt;/b&gt;" style="rounded=1;whiteSpace=wrap;html=1;fillColor=#eeeeee;strokeColor=#36393d;" vertex="1" parent="1">
          <mxGeometry x="675" y="280" width="95" height="30" as="geometry" />
        </mxCell>
        <mxCell id="02cbwI6tHRLVrDnjbwTT-48" value="" style="endArrow=classic;startArrow=classic;html=1;rounded=0;exitX=1;exitY=0.25;exitDx=0;exitDy=0;entryX=0;entryY=0.5;entryDx=0;entryDy=0;" edge="1" parent="1" source="02cbwI6tHRLVrDnjbwTT-17" target="02cbwI6tHRLVrDnjbwTT-46">
          <mxGeometry width="50" height="50" relative="1" as="geometry">
            <mxPoint x="550" y="370" as="sourcePoint" />
            <mxPoint x="600" y="320" as="targetPoint" />
          </mxGeometry>
        </mxCell>
        <mxCell id="02cbwI6tHRLVrDnjbwTT-49" value="" style="endArrow=classic;startArrow=classic;html=1;rounded=0;entryX=1;entryY=0.75;entryDx=0;entryDy=0;exitX=0;exitY=0.5;exitDx=0;exitDy=0;" edge="1" parent="1" source="02cbwI6tHRLVrDnjbwTT-47" target="02cbwI6tHRLVrDnjbwTT-17">
          <mxGeometry width="50" height="50" relative="1" as="geometry">
            <mxPoint x="550" y="370" as="sourcePoint" />
            <mxPoint x="600" y="320" as="targetPoint" />
          </mxGeometry>
        </mxCell>
        <mxCell id="02cbwI6tHRLVrDnjbwTT-52" value="" style="endArrow=classic;startArrow=classic;html=1;rounded=0;exitX=0.266;exitY=1.176;exitDx=0;exitDy=0;exitPerimeter=0;entryX=0;entryY=0;entryDx=0;entryDy=0;dashed=1;" edge="1" parent="1" source="02cbwI6tHRLVrDnjbwTT-5" target="02cbwI6tHRLVrDnjbwTT-30">
          <mxGeometry width="50" height="50" relative="1" as="geometry">
            <mxPoint x="410" y="410" as="sourcePoint" />
            <mxPoint x="460" y="360" as="targetPoint" />
          </mxGeometry>
        </mxCell>
        <mxCell id="02cbwI6tHRLVrDnjbwTT-53" value="" style="endArrow=classic;startArrow=classic;html=1;rounded=0;exitX=1;exitY=0.5;exitDx=0;exitDy=0;entryX=0;entryY=0.5;entryDx=0;entryDy=0;dashed=1;" edge="1" parent="1" source="02cbwI6tHRLVrDnjbwTT-5" target="02cbwI6tHRLVrDnjbwTT-7">
          <mxGeometry width="50" height="50" relative="1" as="geometry">
            <mxPoint x="410" y="410" as="sourcePoint" />
            <mxPoint x="460" y="360" as="targetPoint" />
          </mxGeometry>
        </mxCell>
      </root>
    </mxGraphModel>
  </diagram>
</mxfile>
